<svg xmlns="http://www.w3.org/2000/svg" width="697" height="362" viewBox="0 0 697 362">
    <defs>
        <linearGradient id="ob3fd87i5a" x1="0%" x2="100%" y1="50%" y2="50%">
            <stop offset="0%" stop-color="#679CF6"/>
            <stop offset="100%" stop-color="#4072EE"/>
        </linearGradient>
        <linearGradient id="a0j79tkszb" x1="0%" x2="100%" y1="50%" y2="50%">
            <stop offset="0%" stop-color="#679CF6"/>
            <stop offset="100%" stop-color="#4072EE"/>
        </linearGradient>
        <linearGradient id="czuo0ke4ec" x1="0%" x2="100%" y1="50%" y2="50%">
            <stop offset="0%" stop-color="#679CF6"/>
            <stop offset="100%" stop-color="#4072EE"/>
        </linearGradient>
        <linearGradient id="laxqyp1bcd" x1="0%" x2="100%" y1="23.067%" y2="76.933%">
            <stop offset="0%" stop-color="#26BFBD"/>
            <stop offset="100%" stop-color="#00E1B5"/>
        </linearGradient>
    </defs>
    <g fill="none" fill-rule="evenodd">
        <g fill-rule="nonzero">
            <g>
                <g>
                    <path fill="#EBF2F9" d="M598.24 248.079c-27.688 23.604-61.062 165.954-175.403 91.814-59.068-38.305-158.679 32.885-241.126 8.296-75.717-22.583-83.016-96.983-75.69-121.226 14.798-48.972-31.254-56.26-73.977-77.3C-34.97 116.658 14.308.668 77.618.112c63.309-.554 446.85 1.105 446.85 1.105s91.966-.231 130.214 50.503c41.156 54.596 15.067 135.388-56.442 196.358" transform="translate(-642 -200) translate(642 200) translate(8.228) matrix(1 0 0 -1 0 361.085)"/>
                    <g transform="translate(-642 -200) translate(642 200) translate(8.228) translate(84.22 39.206)">
                        <ellipse cx="328.937" cy="296.852" fill="#31394D" rx="188.287" ry="16.941"/>
                        <path fill="#748AA1" d="M236.905 0H441.276V138.422H236.905z" opacity=".3" transform="rotate(-180 339.09 69.21)"/>
                        <path fill="#F2F2F2" d="M367.717 12.683H428.231V78.63300000000001H367.717z"/>
                        <path fill="#F2F2F2" d="M272.054 12.683H330.394V16.669H272.054z" transform="rotate(-180 301.224 14.676)"/>
                        <path fill="#F2F2F2" d="M367.717 88.778H388.37199999999996V92.76400000000001H367.717z" transform="rotate(-180 378.044 90.771)"/>
                        <path fill="#F2F2F2" d="M368.442 96.026H427.507V100.012H368.442z" transform="rotate(-180 397.974 98.019)"/>
                        <path fill="#F2F2F2" d="M260.096 27.177H344.164V31.163H260.096z" transform="rotate(-180 302.13 29.17)"/>
                        <path fill="#F2F2F2" d="M260.096 38.41H344.164V42.395999999999994H260.096z" transform="rotate(-180 302.13 40.403)"/>
                        <path fill="#F2F2F2" d="M260.096 49.643H344.164V53.629H260.096z" transform="rotate(-180 302.13 51.636)"/>
                        <path fill="#F2F2F2" d="M260.096 60.877H344.164V64.863H260.096z" transform="rotate(-180 302.13 62.87)"/>
                        <path fill="#F2F2F2" d="M260.096 72.11H344.164V76.096H260.096z" transform="rotate(-180 302.13 74.103)"/>
                        <path fill="#F2F2F2" d="M260.096 83.343H344.164V87.32900000000001H260.096z" transform="rotate(-180 302.13 85.336)"/>
                        <path fill="#F2F2F2" d="M260.096 94.576H344.164V98.562H260.096z" transform="rotate(-180 302.13 96.57)"/>
                        <path fill="#748AA1" d="M376.805 50.341c.896-.637 1.884-1.133 2.93-1.47 6.635-2.468 13.586-3.981 20.646-4.494 6.14-.435 12.793.082 17.588 3.94.746.548 1.356 1.259 1.784 2.079.603 1.302.42 2.815.225 4.236-.044.551-.183 1.091-.41 1.595-.646 1.228-2.235 1.659-3.614 1.511-1.38-.147-2.675-.73-4.036-1.001-.842-.147-1.694-.234-2.549-.26l-8.536-.462c-5.308-.287-10.686-.57-15.892.501-1.603.288-3.152.822-4.592 1.583-1.189.667-1.99 1.625-3.093.392-1.939-2.167-3.012-6.149-.451-8.15z"/>
                        <path fill="#F2F2F2" d="M390.032 54.116s11.481-5.147 15.836.792c4.355 5.938-2.375 3.563-2.375 3.563l-7.522 2.375-8.314-1.583 2.375-5.147z"/>
                        <path fill="#FFB9B9" d="M390.626 50.355s1.584 7.522.396 9.501c-1.188 1.98 6.73 4.751 6.73 4.751l7.522-3.167s-1.98-12.273 0-14.648l-14.648 3.563z"/>
                        <path fill="#000" d="M390.626 50.355s1.584 7.522.396 9.501c-1.188 1.98 6.73 4.751 6.73 4.751l7.522-3.167s-1.98-12.273 0-14.648l-14.648 3.563z" opacity=".1"/>
                        <path fill="#FFB9B9" d="M408.838 42.833c-.006 6.557-5.32 11.871-11.877 11.877-.708.001-1.415-.063-2.11-.19-6.185-1.117-10.43-6.859-9.682-13.1.747-6.24 6.226-10.817 12.5-10.443 6.273.374 11.169 5.571 11.169 11.856z"/>
                        <path fill="#F2F2F2" d="M416.009 78.995h-37.878l.86-3.73 3.717-16.2 4.298-2.903.003-.003 2.019-1.366 1.003-.678s.595.272 1.28.641c.199.113.402.229.605.352.003-.004.003 0 .003 0 .329.19.641.408.935.648.054.051.102.095.149.142.753.753 2.953 4.754 6.591 2.707.184-.101.362-.213.533-.334.948-.656 1.852-1.374 2.706-2.149.765-.699 1.262-1.239 1.667-1.612.182-.182.39-.335.616-.457.171-.09.362-.135.555-.134 1.188 0 2.772 2.374 2.772 2.374l.047.137.004.011 4.997 15.002 2.518 7.552z"/>
                        <path fill="#748AA1" d="M378.131 78.995h11.48c.026-1.327-.043-2.655-.207-3.972-.351-2.649-1.213-5.2-1.757-7.816-.478-2.293-.71-4.63-.692-6.972.003-.322.01-.648.04-.975.028-.746.244-1.474.627-2.116.271-.416.645-.772.934-1.17.101-.13.19-.27.265-.417v-.003c.036-.072.069-.146.098-.221.064-.174.1-.356.109-.54.065-1.196-1.019-2.349-2.19-2.841-1.642-.617-3.44-.69-5.126-.207-1.673.483-3.288 1.144-4.82 1.971-.518.254-1.033.515-1.53.805-.592.336-1.137.75-1.619 1.232-1.232 1.272-1.772 3.044-2.207 4.758-.414 1.31-.556 2.691-.416 4.058.003.044.014.09.021.134.432 2.258 2.272 3.954 3.254 6.033 1.138 2.414 1.062 5.226.61 7.856-.023.135-.048.269-.073.403h3.2zM424.861 64.497c-1.44 4.738-2.486 9.587-3.127 14.498H405.37c-.428-1.167-.854-2.335-1.28-3.504-.338-.883-.63-1.783-.872-2.696-.26-1.063-.382-2.154-.366-3.247 0-.261.01-.526.032-.786.004-.005.004-.01 0-.015.1-1.379.419-2.733.946-4.011.242-.581.52-1.147.833-1.692.761-1.377 1.682-2.675 2.5-4.023.511-.823.956-1.686 1.33-2.58 0-.004.001-.008.004-.01.49-1.14.744-2.366.75-3.606-.025-1.598-2.728-4.385.21-4.117 4.012.363 7.458 2.671 10.6 5.302.837.703 1.656 1.431 2.456 2.149 1.24 1.116 2.548 2.333 2.92 3.96.06.26.096.524.106.79-.021 1.226-.25 2.439-.678 3.588z"/>
                        <path fill="#FFB9B9" d="M400.334 60.126c-.412-1.113-1.044-2.131-1.858-2.995-.821-.694-1.793-1.187-2.838-1.438-1.354-.387-2.755-.588-4.163-.597-1.677-.01-3.621.44-4.333 1.957-.566 1.206-.127 2.633.442 3.837.243.624.648 1.17 1.174 1.586.723.488 1.658.473 2.515.636 1.329.338 2.588.908 3.718 1.685l2.936 1.775 5.044 3.049c-.132-.08-.085-3.54-.24-4.106-.5-1.827-1.623-3.66-2.397-5.389z"/>
                        <path fill="#31394D" d="M408.539 36.643c-.211-.71-.677-1.318-1.308-1.707.033-.76-.06-1.521-.276-2.252-.72-2.126-2.423-2.004-4.03-2.945-.698-.407-.655-.768-1.018-1.438-.476-.878-1.189-1.605-2.057-2.099-1.032-.657-2.12-1.334-3.34-1.417-2.565-.174-4.53 2.237-6.982 3.011-1.08.342-2.24.356-3.327.678-1.086.323-2.17 1.093-2.331 2.214-.075.518.057 1.049-.019 1.566-.15 1.029-1.053 1.75-1.657 2.595-1.336 1.87-1.183 4.514-.115 6.55.226.42.483.823.77 1.205.09.962.366 1.897.814 2.753 1.068 2.036 2.907 3.557 4.827 4.82-.157-.675-.253-1.363-.285-2.055-.027-.23.003-.465.087-.681.214-.447.78-.566 1.21-.81.893-.508 1.242-1.63 1.268-2.656.026-1.026-.191-2.054-.084-3.075.009-.474.218-.923.575-1.236.33-.187.706-.277 1.084-.258 1.829-.075 3.74-.108 5.352-.973.52-.345 1.08-.628 1.666-.842 1.37-.358 2.771.603 3.56 1.779.79 1.175 1.185 2.574 1.913 3.789.73 1.214 1.988 2.298 3.397 2.154.16 0 .314-.068.421-.187.06-.11.088-.234.078-.359l.078-5.386c.066-.922-.026-1.847-.271-2.738z"/>
                        <path fill="#748AA1" d="M377.215 72.613c.257 2.12.413 4.247.467 6.382h-9.965V70.62c.05-.202.105-.402.17-.601.624-1.92 1.932-3.53 3.066-5.2.054-.083.112-.167.167-.25.482-.705.897-1.453 1.239-2.236.163-.384.424-2.243.7-2.402 1.18-.685 2.14 2.243 2.304 2.895.58 2.323 1.083 4.667 1.464 7.034.148.916.278 1.834.388 2.753zM427.572 78.995h-22.876c-.196-.46-.388-.92-.59-1.377-1.427-3.227-3.272-6.252-5.487-8.998-.365-.363-.603-.834-.677-1.344-.008-.212.043-.421.148-.605.348-.649 1.269-1.03 2.015-1.337.771-.311 1.48-.758 2.094-1.32.543-.488.958-1.1 1.21-1.786.068-.2.119-.407.153-.616l.319.417c.257.34.518.678.782 1.015 2.537 3.257 5.324 6.468 8.828 8.399.915.51 1.882.922 2.884 1.228.194.086.415.086.609 0 .148-.12.242-.295.264-.485.312-1.305.42-2.649.649-3.972.42-2.406 1.226-4.729 2.388-6.877.648-1.207 2.757-5.617 4.094-2.837l1.16 2.41c.243.51.49 1.017.736 1.528.909 1.621 1.323 3.473 1.192 5.327l.105 11.23z"/>
                        <path fill="#000" d="M378.131 78.995h1.982l-1.123-3.729-1.62-5.374c.02.91-.033 1.82-.155 2.721-.245 1.864-.778 3.678-1.58 5.378-.156.33-.323.663-.457 1.004h2.953zM418.506 67.536c-.28.75-.026 1.58.19 2.352.623 2.237.914 4.554.863 6.876.018.082-.006.169-.065.23-.06.06-.145.086-.228.07-.914.056-1.96.062-2.58-.612l1.82-8.916z" opacity=".1"/>
                        <path fill="#748AA1" d="M0 1.425H204.371V139.847H0z" opacity=".3"/>
                        <path fill="#F2F2F2" d="M13.045 14.107H73.559V80.057H13.045zM110.882 14.107H169.222V18.093H110.882zM13.77 90.203H34.425V94.18900000000001H13.77zM13.77 97.45H72.835V101.436H13.77zM97.113 28.602H181.18099999999998V32.588H97.113zM97.113 39.835H181.18099999999998V43.821H97.113zM97.113 51.068H181.18099999999998V55.053999999999995H97.113zM97.113 62.301H181.18099999999998V66.287H97.113zM97.113 73.535H181.18099999999998V77.521H97.113zM97.113 84.768H181.18099999999998V88.754H97.113zM97.113 96.001H181.18099999999998V99.98700000000001H97.113z"/>
                        <path fill="#5AC8FA" d="M71.914 80.42h-7.867c-.605-1.628-1.142-3.275-1.612-4.943-.31-1.961-1.204-3.784-2.566-5.23-.415-.463-.786-.965-1.105-1.5-.674-1.315-.918-2.81-.696-4.271.046-.407.113-.811.203-1.21.344-1.548.92-3.034 1.403-4.541.207-.625.753-1.076 1.406-1.163.518-.087 1.05-.026 1.536.177.107.044.21.097.308.16.859.518 1.304 1.576 1.663 2.543 1.642 4.407 3.282 8.813 4.921 13.22l.957 2.572c.47 1.261.938 2.522 1.337 3.809.04.126.076.25.112.376z"/>
                        <path fill="#31394D" d="M39.164 22.424c-1.955.66-3.727 2.205-4.128 4.23-.186.94-.072 1.915-.228 2.86-.362 2.19-2.081 3.861-3.667 5.415-1.585 1.553-3.222 3.358-3.338 5.574-.126 2.427 1.634 4.701 1.33 7.112-.355 2.802-3.314 4.617-4.045 7.344-.488 1.821.11 3.783 1.095 5.39 1.876 3.065 5.083 5.145 8.499 6.26 3.415 1.115 7.053 1.35 10.645 1.387 4.375.046 9.124-.33 12.411-3.217 1.878-1.663 3.057-3.976 3.301-6.472.312-3.345-1.084-6.8-.12-10.018.605-2.025 2.125-3.875 1.898-5.976-.222-2.055-2.017-3.512-3.248-5.172-1.15-1.55-1.847-3.38-2.53-5.185l-2.34-6.175c-.46-1.213-.965-2.49-1.99-3.287-1.918-1.491-5.003-1.198-7.246-.89-2.081.285-4.297.144-6.299.82z"/>
                        <path fill="#A0616A" d="M40.974 42.772s.229 6.87-.458 7.556c-.687.687 2.748 5.266 2.748 5.266l6.182-.229 3.205-2.518-2.747-3.664s-1.145-5.953-.23-7.326c.916-1.374-8.7.915-8.7.915z"/>
                        <path fill="#000" d="M40.974 42.772s.229 6.87-.458 7.556c-.687.687 2.748 5.266 2.748 5.266l6.182-.229 3.205-2.518-2.747-3.664s-1.145-5.953-.23-7.326c.916-1.374-8.7.915-8.7.915z" opacity=".1"/>
                        <circle cx="44.752" cy="37.163" r="8.243" fill="#A0616A"/>
                        <path fill="#5AC8FA" d="M48.977 80.42h6.682c.25-.454.485-.925.757-1.352v-.004c.297-.517.715-.955 1.217-1.275.32-.147.623-.328.903-.54.268-.291.457-.645.55-1.03.46-1.437.715-2.933.754-4.442.011-.507 0-1.022.03-1.53.014-.395.064-.79.151-1.177.23-.787.562-1.54.99-2.24.906-1.648 1.814-3.297 2.725-4.945.164-.465.227-.959.184-1.45-.02-.662-.222-1.305-.587-1.859-.126-.228-.264-.456-.41-.677-.558-.892-1.209-1.723-1.941-2.479-1.554-1.63-3.44-2.906-5.53-3.743-.262-.088-.512-.21-.743-.362-.272-.23-.503-.507-.681-.816-.725-1.09-1.609-2.319-2.917-2.25-.43-.216-.929-.25-1.384-.094-.07.018-.137.04-.203.065-.5.221-.985.474-1.453.757-1.204.625-2.567.873-3.914.71-.158-.01-.312-.05-.456-.115-.153-.097-.294-.212-.42-.341-.674-.551-1.592-.698-2.403-.384-.374.133-.705.366-.957.674-.239.3-.406.663-.67.946-.685.732-1.816.76-2.816.757-2.077-.058-4.153.133-6.185.569-1.785.396-3.452 1.202-4.87 2.355l-.004.004c-.196.167-.377.337-.558.518-.412.388-.74.857-.964 1.377-.275.71-.239 1.511-.489 2.232-.275.808-.888 1.468-1.134 2.28-.189.615-.163 1.297-.475 1.855.015.01.026.021.04.032 1.319 1.16 2.446 2.682 3.769 3.83.767.585 1.416 1.31 1.913 2.138.095.186.174.38.235.58.15.693.215 1.4.196 2.11.167 3.387 2.004 6.46 4.058 9.156.04.054.08.109.124.16h16.886z"/>
                        <path fill="#5AC8FA" d="M27.478 68.414c-.312 2.164-.626 4.326-.942 6.487-.144 1.157-.36 2.304-.645 3.435-.189.7-.432 1.384-.602 2.083h-9.436c.005-.391.035-.782.09-1.17.244-1.393.639-2.755 1.179-4.062 1.098-2.964 2.194-5.93 3.29-8.9.467-1.264.87-2.587 1.384-3.84.09-.233.188-.465.294-.69.547-1.202 2.065-.71 3.188-.528.309.038.61.124.892.253.341.189.63.46.837.79 1.065 1.577.833 3.66.558 5.544l-.087.598z"/>
                        <path fill="#2F2E41" d="M56.416 79.068c.014.05.17.59.428 1.351h-7.867c3.899-.67 7.439-1.355 7.439-1.355v.004z"/>
                        <ellipse cx="45.439" cy="32.355" fill="#31394D" rx="8.929" ry="4.808"/>
                        <path fill="#31394D" d="M130.924 52.383H335.295V190.805H130.924z"/>
                        <ellipse cx="305.582" cy="178.846" fill="#000" opacity=".1" rx="23.916" ry="2.537"/>
                        <path fill="#F2F2F2" d="M143.969 65.065H204.483V131.015H143.969z"/>
                        <path fill="#2F2E41" d="M163.455 95.345c.406.123.841-.057 1.042-.43.837-1.32-.704-3.02-.37-4.545.267-1.223 1.656-1.948 1.94-3.167.276-1.184-.575-2.519 0-3.59.45-.84 1.575-1.06 2.516-.914.941.147 1.835.561 2.786.62 1.266.076 2.474-.481 3.713-.758 1.239-.276 2.75-.168 3.479.871.936 1.335-.014 3.193.312 4.79.259 1.268 1.32 2.318 1.343 3.612.008.46-1.2.09-1.136.545.064.455-.508.054-.05 0 .382-.094.66-.424.687-.818.054-.379.767-.505.759-.889-.02-.898 1.604-.292 1.871-1.15.615-1.998.489-4.152-.355-6.065-.435-.782-.782-1.61-1.036-2.467-.238-1.19.137-2.469-.256-3.618-.53-1.548-2.285-2.337-3.913-2.497-1.629-.16-3.284.126-4.903-.11-1.45-.212-2.855-.84-4.318-.75-1.755.11-3.283 1.241-4.5 2.511s-2.25 2.73-3.631 3.819c-.423.291-.814.627-1.165 1.002-.704.858-.775 2.08-.58 3.173.197 1.092.623 2.134.803 3.229.169 1.029.117 2.08.19 3.12.016 1.05.334 2.072.915 2.946.508.69 1.306 1.107 2.163 1.13.293.007.54-.256.836-.187.37.085.53.436.858.587z"/>
                        <path fill="#B558FB" d="M150.147 131.377l.464-6.337 1.71-4.508 5.49 10.845h-7.664z"/>
                        <path fill="#000" d="M150.147 131.377l.464-6.337 1.71-4.508 5.49 10.845h-7.664z" opacity=".4"/>
                        <path fill="#A0616A" d="M162.87 95.714s5.119 13.03 2.171 15.512c-2.947 2.482 16.443-4.189 16.443-4.189l-.465-1.706s-6.36-2.482-3.258-9.617c3.102-7.136-14.891 0-14.891 0z"/>
                        <path fill="#000" d="M162.87 95.714s5.119 13.03 2.171 15.512c-2.947 2.482 16.443-4.189 16.443-4.189l-.465-1.706s-6.36-2.482-3.258-9.617c3.102-7.136-14.891 0-14.891 0z" opacity=".1"/>
                        <circle cx="170.16" cy="90.129" r="10.858" fill="#A0616A"/>
                        <path fill="#6B428A" d="M196.53 113.553l-.12 2.37c-.156 3.069-.435 8.82-.714 15.454h-42.092c-1.1-1.473-2-3.085-2.677-4.794-.184-.495-.29-1.016-.316-1.543-.232-4.113 3.454-9.853 6.055-10.4 2.946-.624 8.53-6.516 8.53-6.516.037.456.305.862.71 1.073v.004c.45.232.955.342 1.46.319 1.82 0 9.82-3.693 12.39-4.9.504-.235.797-.376.797-.376 2.963 1.278 6.024 2.317 9.153 3.105 3.172.791 5.735 3.121 6.824 6.204z"/>
                        <path fill="#31394D" d="M161.594 94.259c.405.123.841-.057 1.041-.43.837-1.319-.704-3.02-.37-4.545.267-1.223 1.656-1.948 1.94-3.167.276-1.184-.574-2.519 0-3.59.45-.84 1.576-1.06 2.517-.913.941.147 1.834.56 2.785.618 1.267.078 2.475-.48 3.714-.756 1.238-.277 2.75-.169 3.478.87.936 1.335-.013 3.193.313 4.79.258 1.268 3.206 2.158 3.474 1.3.615-1.998.488-4.152-.356-6.065-.435-.782-.782-1.61-1.035-2.467-.239-1.19.137-2.469-.257-3.618-.53-1.548-2.284-2.337-3.912-2.497-1.629-.16-3.284.126-4.903-.11-1.45-.212-2.855-.84-4.318-.75-1.756.11-3.283 1.241-4.5 2.511s-2.25 2.731-3.632 3.82c-.423.29-.813.626-1.164 1.001-.704.858-.775 2.08-.58 3.173.196 1.092.622 2.134.802 3.229.17 1.029.117 2.08.19 3.12.017 1.05.335 2.072.915 2.946.509.69 1.307 1.108 2.164 1.13.293.007.54-.256.836-.187.37.086.53.437.858.587z"/>
                        <path fill="#6B428A" d="M202.994 131.377H189.13c-2.054-7.5-4.08-15.654-4.08-15.654l5.276-3.877 6.204 1.707s3.63 8.642 6.464 17.824z"/>
                        <path fill="#000" d="M202.879 131.377h-12.284c-.935-6.856-1.707-14.023-1.707-14.023l2.482-1.087 5.044-2.714s.37.877.964 2.37c1.268 3.192 3.57 9.2 5.5 15.454z" opacity=".2"/>
                        <path fill="url(#ob3fd87i5a)" d="M241.807 65.065H300.147V69.051H241.807z"/>
                        <path fill="url(#a0j79tkszb)" d="M144.694 141.161H165.349V145.147H144.694z"/>
                        <path fill="url(#czuo0ke4ec)" d="M144.694 148.408H203.759V152.39399999999998H144.694z"/>
                        <path fill="#F2F2F2" d="M228.037 79.56H312.105V83.546H228.037zM228.037 90.793H312.105V94.77900000000001H228.037zM228.037 102.026H312.105V106.012H228.037zM228.037 113.259H312.105V117.245H228.037zM228.037 124.492H312.105V128.478H228.037zM228.037 135.726H312.105V139.712H228.037zM228.037 146.959H312.105V150.945H228.037z"/>
                        <path fill="#57B894" d="M328.309 147.497l-22.981 22.981-9.66-9.659c-.618-.62-1.458-.967-2.334-.967-.876 0-1.715.348-2.335.967l-.347-.519c-1.29 1.29-.942 3.899.347 5.188l12.533 12.533c.983.983 2.578.984 3.562 0l25.882-25.854c1.29-1.29 1.758-3.653.468-4.942-1.289-1.29-3.846-1.017-5.135.272z"/>
                        <path fill="#000" d="M328.309 147.497l-22.981 22.981-9.66-9.659c-.618-.62-1.458-.967-2.334-.967-.876 0-1.715.348-2.335.967l-.347-.519c-1.29 1.29-.942 3.899.347 5.188l12.533 12.533c.983.983 2.578.984 3.562 0l25.882-25.854c1.29-1.29 1.758-3.653.468-4.942-1.289-1.29-3.846-1.017-5.135.272z" opacity=".1"/>
                        <path fill="url(#laxqyp1bcd)" d="M328.309 146.478l-22.981 22.981-9.66-9.659c-.618-.619-1.458-.967-2.334-.967-.876 0-1.715.348-2.335.967-.619.62-.967 1.46-.967 2.335 0 .876.348 1.715.967 2.335l12.533 12.532c.983.983 2.578.984 3.562 0l25.882-25.854c.62-.619.968-1.459.968-2.335 0-.875-.348-1.715-.967-2.335-1.29-1.289-3.38-1.289-4.668 0z"/>
                        <path fill="#000" d="M497.379 279.584c0 25.911-36.118 17.897-80.34 17.897-44.223 0-79.804 8.014-79.804-17.897 0-25.912 36.112-31.548 80.335-31.548 44.223 0 79.809 5.636 79.809 31.548z" opacity=".1"/>
                        <path fill="#31394D" d="M497.379 274.743c0 25.912-36.118 17.897-80.34 17.897-44.223 0-79.804 8.015-79.804-17.897 0-25.911 36.112-31.547 80.335-31.547 44.223 0 79.809 5.636 79.809 31.547z"/>
                        <path fill="#FFC1C7" d="M346.397 193.567l-1.637 1.9s-19.9 1.87-19.092 5.1c.808 3.23 23.959-4.308 23.959-4.308l-3.23-2.692z"/>
                        <path fill="#FF9B44" d="M382.469 191.952s-21.267 7.538-32.842 4.307l5.384 10.768s27.458-.807 32.303-5.653c4.846-4.846-4.845-9.422-4.845-9.422z"/>
                        <path fill="#000" d="M382.469 191.952s-21.267 7.538-32.842 4.307l5.384 10.768s27.458-.807 32.303-5.653c4.846-4.846-4.845-9.422-4.845-9.422z" opacity=".1"/>
                        <circle cx="368.067" cy="119.942" r="14.267" fill="#FFC1C7"/>
                        <path fill="#FFC1C7" d="M380.232 133.337c.492.937 1.114 1.8 1.849 2.562 1.954 2.126 4.286 3.871 6.877 5.146-8.098 1.646-16.277 2.862-24.503 3.644.868-3.059-.275-6.33-1.812-9.114-1.536-2.784-3.495-5.378-4.456-8.409l9.643.26c1.75.046 3.505.099 5.254.013 1.308-.064 3.486-.847 4.707-.559 2.58.61 1.315 4.168 2.441 6.457z"/>
                        <path fill="#5B7187" d="M412.619 200.297l8.076 9.691s13.46 31.496-15.883 34.727c-29.342 3.23-51.147-2.423-51.147-2.423s-11.845-5.653-12.114-1.346c-.27 4.307-1.346 16.42-7.807 28.265l-5.653 12.922s-2.96 2.96-2.153 6.999c.807 4.038-18.036 5.384-17.767 0 0 0 2.692-4.576 2.692-7.268s4.307-9.153 4.307-9.153l7.807-38.764s-.539-19.92 17.766-16.152c18.306 3.769 44.418-.808 44.418-.808l5.922-20.728 21.536 4.038z"/>
                        <path fill="#000" d="M412.619 200.297l8.076 9.691s13.46 31.496-15.883 34.727c-29.342 3.23-51.147-2.423-51.147-2.423s-11.845-5.653-12.114-1.346c-.27 4.307-1.346 16.42-7.807 28.265l-5.653 12.922s-2.96 2.96-2.153 6.999c.807 4.038-18.036 5.384-17.767 0 0 0 2.692-4.576 2.692-7.268s4.307-9.153 4.307-9.153l7.807-38.764s-.539-19.92 17.766-16.152c18.306 3.769 44.418-.808 44.418-.808l5.922-20.728 21.536 4.038z" opacity=".1"/>
                        <path fill="#5B7187" d="M382.334 199.588s24.632-9.251 38.36 10.4c0 0 3.5 30.42-10.498 31.765-13.998 1.346-32.304 1.077-36.61-3.5-4.308-4.576-31.497-17.497-31.497-17.497s-13.534-6.903-16.189 2.067c-2.654 8.97-2.924 11.124-2.924 11.124s-13.998 10.23-19.65 12.114c0 0-3.77 5.383-5.923 5.383-2.154 0-15.344 2.962-13.998-6.999l21.805-19.92 21.804-21.267s6.192-9.152 22.074-4.307c10.541 3.137 21.233 5.743 32.035 7.807l1.211-7.17z"/>
                        <path fill="#CBCEDA" d="M325.13 288.593s5.115 12.922.808 14.537c-4.308 1.615-13.46.538-13.46.538s-10.768-1.346-13.46-1.076c-2.692.269-13.729-1.885-12.114-6.192 1.615-4.307 9.96-3.23 9.96-3.23l7.538-3.5s.808-2.692 2.692-1.615c1.884 1.077 7.268 5.115 18.036.538zM297.134 250.368s5.653 12.652-3.5 11.575c-9.153-1.077-16.152-2.961-18.844-3.23-2.589-.26-9.911-2.76-8.788-7.742.06-.322.085-.65.073-.978 0-.668.909-1.98 8.177-1.779 0 0 5.384 0 7.537-3.769 0 0 8.076 10.23 15.345 5.923z"/>
                        <path fill="#FF9B44" d="M358.241 142.69s19.382-12.115 35.534 0c16.152 12.113 26.92 67.298 26.92 67.298l-37.419-8.345s-1.615-6.46-3.768-7.537c-2.154-1.077-2.423-5.653-2.423-5.653s-11.576-3.5-10.768-16.96c.808-13.46-8.076-28.804-8.076-28.804z"/>
                        <path fill="#FF9B44" d="M368.201 143.228h-9.96s-5.922 6.73-6.73 23.689l-3.23 13.46s-6.73 16.151-2.692 18.843 11.845 2.423 13.46-2.96c1.615-5.385 12.652-36.611 12.652-36.611l-3.5-16.421z"/>
                        <path fill="#31394D" d="M365.347 101.374c5.036-2.065 10.805-1.119 14.918 2.446 5.17 4.614 6.213 12.14 7.52 18.945 1.307 6.805 3.936 14.383 10.35 17.007-2.891.386-5.826.3-8.689-.253l9.692 8.685-16.327-5.321c-5.124-1.67-10.505-3.361-15.811-2.418-8.79 1.562-14.91 9.826-23.353 12.729l.938-4.578-5.665-.044c1.357-1.004 2.467-2.304 3.246-3.802-.54-.655-1.321-1.064-2.167-1.134-2.361-14.728 6.385-29.287 17.782-38.91 2.242-1.892 4.723-3.71 7.618-4.183 2.896-.474 6.276.821 7.283 3.577"/>
                    </g>
                </g>
            </g>
        </g>
    </g>
</svg>
